<svg enable-background="new 0 0 751.4 554.9" viewBox="0 0 751.4 554.9" xmlns="http://www.w3.org/2000/svg"><g clip-rule="evenodd" fill-rule="evenodd"><path d="m380.5 90.2c-40.4 0-73.2 31.4-73.2 70s32.8 70 73.2 70 73.2-31.4 73.2-70-32.8-70-73.2-70z" fill="#231f20"/><path d="m362.8 119.6c-9.8 0-17.7 7.6-17.7 17s7.9 17 17.7 17 17.7-7.6 17.7-17-7.9-17-17.7-17z" fill="#fff"/><path d="m328.5 181.8c-40.4 0-73.2 31.4-73.2 70s32.8 70 73.2 70 73.2-31.4 73.2-70-32.8-70-73.2-70z" fill="#231f20"/><path d="m432.6 181.8c-40.4 0-73.2 31.4-73.2 70s32.8 70 73.2 70 73.2-31.4 73.2-70-32.9-70-73.2-70z" fill="#231f20"/><g fill="#fff"><path d="m310.8 211.2c-9.8 0-17.7 7.6-17.7 17s7.9 17 17.7 17 17.7-7.6 17.7-17-8-17-17.7-17z"/><path d="m414.8 211.2c-9.8 0-17.7 7.6-17.7 17s7.9 17 17.7 17 17.7-7.6 17.7-17-7.9-17-17.7-17z"/></g></g><g fill="#231f20"><path d="m370.6 380.1-12.9 53.2-12.9-53.2h-8.3l16.4 68h9.5l16.5-68z"/><path d="m486.3 448.7h8.3l-16.5-68h-9.5l-16.5 68h8.3l4.7-19.5h16.3zm-19.4-26.5 6.5-26.8 6.5 26.8z"/><path d="m303.9 448.1h8.3l-16.5-68h-9.5l-16.5 68h8.3l4.8-19.6h16.3zm-19.4-26.5 6.5-26.7 6.5 26.7z"/><path d="m410.9 380.8h8.1v67.8h-8.1z"/><path d="m554.2 389-8.1-8.1h-15.6-8.1v67.8h8.1v-32.5h12.2l3.4 3.4v29.1h8.1v-32.5l-4-4 4-4zm-23.7-.1h12.2l3.4 3.4v12.4l-3.3 3.3h-12.3z"/><path d="m240.5 389.7-9.6-9.6h-14.5v.1l-9.5 9.5h-.1v48.7l9.6 9.6v.1h14.5l9.6-9.6h.1v-8.8h-8.2v5.3l-4.9 4.8h-7.6l-4.8-4.8v-41.8l4.8-4.8h7.6l4.9 4.8v6.2h8.2v-9.7z"/></g><path d="m0 0h751.4v554.9h-751.4z" fill="none" stroke="#fff" stroke-miterlimit="10"/></svg>