<?xml version="1.0" encoding="utf-8"?>
<!-- Generator: Adobe Illustrator 19.0.0, SVG Export Plug-In . SVG Version: 6.00 Build 0)  -->
<svg version="1.1" id="Warstwa_1" xmlns="http://www.w3.org/2000/svg" xmlns:xlink="http://www.w3.org/1999/xlink" x="0px" y="0px"
	 viewBox="0 0 751.4 554.9" style="enable-background:new 0 0 751.4 554.9;" xml:space="preserve">
<style type="text/css">
	.st0{fill-rule:evenodd;clip-rule:evenodd;fill:#231F20;}
	.st1{fill-rule:evenodd;clip-rule:evenodd;fill:#FFFFFF;}
	.st2{fill:#231F20;}
	.st3{fill:none;stroke:#FFFFFF;stroke-miterlimit:10;}
</style>
<g id="XMLID_67_">
	<g id="Obraz_xA0_2">
		<g id="XMLID_50_">
			<path id="XMLID_51_" class="st0" d="M380.5,90.2c-40.4,0-73.2,31.4-73.2,70s32.8,70,73.2,70s73.2-31.4,73.2-70
				S420.9,90.2,380.5,90.2z"/>
		</g>
	</g>
	<g id="Obraz_xA0_3">
		<g id="XMLID_48_">
			<path id="XMLID_49_" class="st1" d="M362.8,119.6c-9.8,0-17.7,7.6-17.7,17s7.9,17,17.7,17s17.7-7.6,17.7-17
				S372.6,119.6,362.8,119.6z"/>
		</g>
	</g>
	<g id="Obraz_xA0_4">
		<g id="XMLID_45_">
			<path id="XMLID_47_" class="st0" d="M328.5,181.8c-40.4,0-73.2,31.4-73.2,70s32.8,70,73.2,70c40.4,0,73.2-31.4,73.2-70
				S368.9,181.8,328.5,181.8z"/>
		</g>
	</g>
	<g id="Obraz_xA0_5">
		<g id="XMLID_41_">
			<path id="XMLID_42_" class="st0" d="M432.6,181.8c-40.4,0-73.2,31.4-73.2,70s32.8,70,73.2,70s73.2-31.4,73.2-70
				S472.9,181.8,432.6,181.8z"/>
		</g>
	</g>
	<g id="Obraz_xA0_6">
		<g id="XMLID_40_">
			<path id="XMLID_43_" class="st1" d="M310.8,211.2c-9.8,0-17.7,7.6-17.7,17s7.9,17,17.7,17s17.7-7.6,17.7-17
				S320.5,211.2,310.8,211.2z"/>
		</g>
	</g>
	<g id="Obraz_xA0_7">
		<g id="XMLID_44_">
			<path id="XMLID_46_" class="st1" d="M414.8,211.2c-9.8,0-17.7,7.6-17.7,17s7.9,17,17.7,17c9.8,0,17.7-7.6,17.7-17
				S424.6,211.2,414.8,211.2z"/>
		</g>
	</g>
</g>
<g id="XMLID_1_">
	<polygon id="XMLID_2_" class="st2" points="370.6,380.1 357.7,433.3 344.8,380.1 336.5,380.1 352.9,448.1 362.4,448.1 378.9,380.1 
			"/>
	<path id="XMLID_13_" class="st2" d="M486.3,448.7h8.3l-16.5-68h-9.5l-16.5,68h8.3l4.7-19.5h16.3L486.3,448.7z M466.9,422.2
		l6.5-26.8l6.5,26.8H466.9z"/>
	<path id="XMLID_18_" class="st2" d="M303.9,448.1h8.3l-16.5-68h-9.5l-16.5,68h8.3l4.8-19.6h16.3L303.9,448.1z M284.5,421.6
		l6.5-26.7l6.5,26.7H284.5z"/>
	<rect id="XMLID_14_" x="410.9" y="380.8" class="st2" width="8.1" height="67.8"/>
	<path id="XMLID_22_" class="st2" d="M554.2,389L554.2,389L554.2,389L554.2,389l-8.1-8.1v0h-15.6v0h-8.1v67.8h8.1v-32.5h12.2
		l3.4,3.4v29.1h8.1v-32.5h0l-4-4l4-4h0L554.2,389L554.2,389z M530.5,388.9h12.2l3.4,3.4v12.4l-3.3,3.3h-12.3V388.9z"/>
	<polygon id="XMLID_24_" class="st2" points="240.5,389.7 230.9,380.1 230.9,380.1 230.9,380.1 216.4,380.1 216.4,380.2 
		206.9,389.7 206.8,389.7 206.8,438.4 206.8,438.4 206.8,438.4 216.4,448 216.4,448.1 230.9,448.1 230.9,448.1 230.9,448.1 
		240.5,438.5 240.6,438.5 240.6,429.7 232.4,429.7 232.4,435 227.5,439.8 219.9,439.8 215.1,435 215.1,393.2 219.9,388.4 
		227.5,388.4 232.4,393.2 232.4,399.4 240.6,399.4 240.6,389.7 	"/>
</g>
<rect id="XMLID_30_" x="0" class="st3" width="751.4" height="554.9"/>
</svg>
