<?xml version="1.0" encoding="utf-8"?>
<!-- Generator: Adobe Illustrator 19.0.0, SVG Export Plug-In . SVG Version: 6.00 Build 0)  -->
<svg version="1.1" id="Warstwa_1" xmlns="http://www.w3.org/2000/svg" xmlns:xlink="http://www.w3.org/1999/xlink" x="0px" y="0px"
	 viewBox="0 0 751.4 554.9" style="enable-background:new 0 0 751.4 554.9;" xml:space="preserve">
<style type="text/css">
	.st0{fill-rule:evenodd;clip-rule:evenodd;fill:#231F20;}
	.st1{fill-rule:evenodd;clip-rule:evenodd;fill:#FFFFFF;}
	.st2{fill:#231F20;}
	.st3{fill:none;stroke:#FFFFFF;stroke-miterlimit:10;}
</style>
<g id="XMLID_67_">
	<g id="Obraz_xA0_2">
		<g id="XMLID_64_">
			<path id="XMLID_65_" class="st0" d="M374.3,90.2c-40.4,0-73.2,31.4-73.2,70s32.8,70,73.2,70c40.4,0,73.2-31.4,73.2-70
				S414.7,90.2,374.3,90.2z"/>
		</g>
	</g>
	<g id="Obraz_xA0_3">
		<g id="XMLID_61_">
			<path id="XMLID_62_" class="st1" d="M356.6,119.6c-9.8,0-17.7,7.6-17.7,17s7.9,17,17.7,17c9.8,0,17.7-7.6,17.7-17
				S366.4,119.6,356.6,119.6z"/>
		</g>
	</g>
	<g id="Obraz_xA0_4">
		<g id="XMLID_58_">
			<path id="XMLID_59_" class="st0" d="M322.3,181.8c-40.4,0-73.2,31.4-73.2,70s32.8,70,73.2,70s73.2-31.4,73.2-70
				S362.7,181.8,322.3,181.8z"/>
		</g>
	</g>
	<g id="Obraz_xA0_5">
		<g id="XMLID_55_">
			<path id="XMLID_56_" class="st0" d="M426.4,181.8c-40.4,0-73.2,31.4-73.2,70s32.8,70,73.2,70c40.4,0,73.2-31.4,73.2-70
				S466.8,181.8,426.4,181.8z"/>
		</g>
	</g>
	<g id="Obraz_xA0_6">
		<g id="XMLID_57_">
			<path id="XMLID_60_" class="st1" d="M304.6,211.2c-9.8,0-17.7,7.6-17.7,17s7.9,17,17.7,17c9.8,0,17.7-7.6,17.7-17
				S314.4,211.2,304.6,211.2z"/>
		</g>
	</g>
	<g id="Obraz_xA0_7">
		<g id="XMLID_63_">
			<path id="XMLID_66_" class="st1" d="M408.7,211.2c-9.8,0-17.7,7.6-17.7,17s7.9,17,17.7,17c9.8,0,17.7-7.6,17.7-17
				S418.4,211.2,408.7,211.2z"/>
		</g>
	</g>
</g>
<polygon id="XMLID_8_" class="st2" points="368.1,346.9 357.8,389.3 347.5,346.9 340.9,346.9 354,401.1 361.6,401.1 374.7,346.9 "/>
<path id="XMLID_15_" class="st2" d="M446.1,401.2h6.6L439.6,347h-7.6l-13.1,54.2h6.6l3.8-15.6h13L446.1,401.2z M430.7,380.1
	l5.2-21.3l5.2,21.3H430.7z"/>
<path id="XMLID_17_" class="st2" d="M321.4,401.2h6.6l-13.1-54.2h-7.6l-13.1,54.2h6.6l3.8-15.6h13L321.4,401.2z M305.9,380.1
	l5.2-21.3l5.2,21.3H305.9z"/>
<rect id="XMLID_14_" x="394.1" y="347.1" class="st2" width="6.5" height="54"/>
<path id="XMLID_22_" class="st2" d="M496.2,353.6L496.2,353.6L496.2,353.6L496.2,353.6l-6.5-6.5v0h-12.4v0h-6.5v54h6.5v-25.9h9.7
	l2.7,2.7v23.2h6.5v-25.9h0L493,372l3.2-3.2h0L496.2,353.6L496.2,353.6z M477.3,353.5h9.8l2.7,2.7v9.9l-2.6,2.6h-9.8V353.5z"/>
<polygon id="XMLID_10_" class="st2" points="278.9,355.6 271.4,348 271.4,348 271.4,348 260,348 260,348.1 252.5,355.6 252.5,355.6 
	252.5,393.7 252.5,393.7 252.5,393.7 260,401.2 260,401.2 271.4,401.2 271.4,401.2 271.4,401.2 278.9,393.7 278.9,393.7 
	278.9,386.8 272.5,386.8 272.5,391 268.7,394.8 262.7,394.8 258.9,391 258.9,358.3 262.7,354.5 268.7,354.5 272.5,358.3 
	272.5,363.1 278.9,363.1 278.9,355.6 "/>
<rect id="XMLID_30_" x="0" class="st3" width="751.4" height="554.9"/>
</svg>
